# xmcd
#
# Track frame offsets: 
#        150
#        10449
#        23841
#        55710
#        65062
#        75694
#        90998
#        104731
#        115517
#        129568
#        147876
#        163372
#        198142
#        218875
#        231077
#        245722
#        260618
#        273712
#        284815
#        299303
#
# Disc length: 4181 seconds
#
# Revision: 0
# Processed by: cddbd v1.5.2PL0 Copyright (c) Steve Scherf et al.
# Submitted via: ExactAudioCopy v0.99pb5
#
DISCID=36105314
DTITLE=Ella Fitzgerald - Legendäre Aufnahmen
DYEAR=1978
DGENRE=Gospel
TTITLE0=Puttin on the Ritz
TTITLE1=I've got my love to keep me warm
TTITLE2=bewitched, bebrothered and bewildered
TTITLE3=what is this thing called love
TTITLE4=just you, just me
TTITLE5=the lady is a tramp
TTITLE6=miss otis regrets
TTITLE7=heat wave
TTITLE8=night and day
TTITLE9=oh, lady be good
TTITLE10=easy to love
TTITLE11=do nothing till you hear from me
TTITLE12=this time the dream's on me
TTITLE13=baby, it's cold outside
TTITLE14=a sunday kind of love
TTITLE15=sentimental journey
TTITLE16=i'm gonna wash the man out of my hair
TTITLE17=flying home
TTITLE18=the firm farm sauce
TTITLE19=(i love you) for sentimental reason
EXTD=
EXTT0=
EXTT1=
EXTT2=
EXTT3=
EXTT4=
EXTT5=
EXTT6=
EXTT7=
EXTT8=
EXTT9=
EXTT10=
EXTT11=
EXTT12=
EXTT13=
EXTT14=
EXTT15=
EXTT16=
EXTT17=
EXTT18=
EXTT19=
PLAYORDER=
